<?xml version="1.0" standalone="no"?>
<!DOCTYPE svg PUBLIC "-//W3C//DTD SVG 20010904//EN"
 "http://www.w3.org/TR/2001/REC-SVG-20010904/DTD/svg10.dtd">
<svg version="1.0" xmlns="http://www.w3.org/2000/svg"
 width="1200.000000pt" height="1352.000000pt" viewBox="0 0 1200.000000 1352.000000"
 preserveAspectRatio="xMidYMid meet">

<g transform="translate(0.000000,1352.000000) scale(0.100000,-0.100000)"
fill="#000000" stroke="none">
<path d="M1930 13509 c-548 -55 -1039 -328 -1446 -802 -381 -444 -551 -1017
-459 -1542 33 -190 129 -525 150 -525 7 0 85 32 175 72 l162 71 -5 41 c-33
236 -40 362 -29 465 15 135 40 223 96 336 107 215 289 363 526 427 74 20 109
22 270 22 273 0 425 -31 869 -180 278 -93 496 -152 696 -186 166 -28 475 -30
695 -4 323 37 721 114 1077 206 83 22 157 40 164 40 7 0 -89 -102 -212 -228
-460 -467 -758 -856 -958 -1252 -256 -505 -381 -1146 -381 -1951 0 -210 4
-270 25 -415 14 -93 25 -191 25 -217 0 -41 -3 -48 -17 -43 -105 32 -357 74
-523 86 -234 18 -489 -15 -709 -91 -209 -73 -465 -222 -661 -387 -97 -81 -349
-334 -386 -387 l-21 -30 122 -102 122 -101 74 50 c98 68 273 151 381 182 281
81 650 72 930 -23 181 -61 309 -141 444 -275 221 -221 355 -526 418 -953 15
-99 36 -343 36 -420 l0 -41 -82 50 c-108 64 -281 148 -388 187 -192 69 -346
96 -523 89 -241 -10 -451 -94 -696 -279 -87 -65 -265 -231 -310 -288 l-31 -38
81 -94 c45 -52 85 -98 89 -102 4 -5 48 5 96 21 166 56 274 75 434 76 153 0
214 -9 345 -51 382 -122 698 -469 822 -903 78 -276 67 -605 -33 -953 -183
-639 -694 -1296 -1519 -1954 -250 -199 -425 -325 -750 -541 -154 -102 -284
-189 -289 -193 -9 -8 213 -369 228 -369 5 0 88 42 185 94 2139 1143 4078 1546
5786 1200 949 -192 1882 -622 2745 -1268 l45 -33 1092 1016 1091 1015 -101
110 c-56 61 -131 141 -167 179 l-66 69 -433 -406 c-382 -358 -436 -405 -451
-394 -10 7 -91 69 -181 137 -301 227 -550 381 -889 549 -695 346 -1357 515
-2162 552 -671 32 -1455 -89 -2443 -374 -104 -30 -191 -53 -193 -52 -2 3 278
250 443 391 385 329 715 633 1065 984 912 913 1299 1492 1525 2282 139 486
205 1039 192 1614 -10 406 -59 1012 -182 2240 -96 956 -108 1115 -101 1285 23
528 157 904 420 1178 288 300 768 501 1426 598 96 14 189 27 206 30 l32 5
-102 225 -101 226 -335 -6 c-329 -5 -404 -10 -625 -41 -448 -64 -881 -203
-1212 -388 -777 -436 -1258 -1135 -1418 -2057 -49 -284 -59 -428 -59 -810 1
-459 0 -449 159 -2115 86 -895 95 -1019 95 -1260 0 -223 -17 -478 -45 -693
-207 -1586 -1062 -2900 -2575 -3957 l-85 -60 58 80 c112 156 466 693 565 856
562 932 846 1668 967 2501 45 315 56 474 62 895 10 720 -24 1272 -167 2698
-97 977 -104 1066 -97 1340 6 242 15 345 47 535 52 308 152 608 276 823 219
383 683 866 1231 1284 67 51 110 90 106 97 -14 24 -166 271 -170 275 -1 2 -74
-30 -160 -72 -470 -225 -853 -364 -1193 -431 -447 -89 -691 -53 -1520 225
-374 125 -746 228 -1020 283 -259 52 -476 66 -690 45z"/>
</g>
</svg>
